<svg width="30" height="31" viewBox="0 0 30 31" fill="none" xmlns="http://www.w3.org/2000/svg">
<path d="M15 30.593C23.2843 30.593 30 23.8975 30 15.6382C30 7.37895 23.2843 0.683471 15 0.683471C6.71573 0.683471 2.94147e-07 7.37895 6.56995e-07 15.6382C1.01984e-06 23.8975 6.71573 30.593 15 30.593Z" fill="#666666"/>
<path d="M15 30.593C23.2843 30.593 30 23.8975 30 15.6382C30 7.37895 23.2843 0.683471 15 0.683471C6.71573 0.683471 2.94147e-07 7.37895 6.56995e-07 15.6382C1.01984e-06 23.8975 6.71573 30.593 15 30.593Z" stroke="black"/>
<path d="M14 20.6231L19 15.6382L14 10.6533" stroke="white"/>
</svg>
