<svg width="30" height="31" viewBox="0 0 30 31" fill="none" xmlns="http://www.w3.org/2000/svg">
<path d="M15 30.593C6.71573 30.593 8.87505e-07 23.8975 1.25035e-06 15.6382C1.6132e-06 7.37895 6.71573 0.683471 15 0.683471C23.2843 0.683471 30 7.37895 30 15.6382C30 23.8975 23.2843 30.593 15 30.593Z" fill="#666666"/>
<path d="M15 30.593C6.71573 30.593 8.87505e-07 23.8975 1.25035e-06 15.6382C1.6132e-06 7.37895 6.71573 0.683471 15 0.683471C23.2843 0.683471 30 7.37895 30 15.6382C30 23.8975 23.2843 30.593 15 30.593Z" stroke="black"/>
<path d="M16 20.6231L11 15.6382L16 10.6533" stroke="white"/>
</svg>
